<svg width="23" height="24" viewBox="0 0 23 24" fill="none" xmlns="http://www.w3.org/2000/svg">
<path fill-rule="evenodd" clip-rule="evenodd" d="M17.8761 2.71592C17.8634 3.46813 17.5346 4.18024 16.9703 4.67773C16.1606 5.29704 15.0705 5.40564 14.1546 4.95823C13.2387 4.51083 12.6543 3.58425 12.6451 2.56495C12.6617 1.82428 12.9686 1.11977 13.4996 0.603145C13.9731 0.227938 14.5555 0.0163297 15.1594 4.24292e-05C15.8807 -0.00282213 16.5732 0.282369 17.0833 0.792295C17.5934 1.30222 17.8787 1.99468 17.8761 2.71592ZM8.17204 5.19022C8.19863 5.17386 8.21801 5.16194 8.21801 5.13063L8.21265 5.12756C9.99601 4.82788 11.827 5.20474 13.3471 6.18433C13.6763 6.34966 13.9954 6.53441 14.3027 6.73762C14.3784 6.75015 14.4486 6.78512 14.5042 6.83801H14.4544C14.4285 6.86349 14.4157 6.87614 14.403 6.88888C14.3904 6.90143 14.378 6.91407 14.3533 6.93917C15.4256 7.64175 16.7627 7.80867 17.9749 7.3913H18.0255C18.0255 7.35983 18.0448 7.34794 18.0716 7.33145C18.0878 7.32144 18.1068 7.30973 18.1259 7.29091C18.9507 6.95611 19.6532 6.37687 20.1391 5.63104C20.1776 5.55493 20.2295 5.4864 20.2923 5.42873C21.3989 4.57427 23.2603 5.83182 22.3039 7.08937C21.9193 7.66471 21.463 8.18875 20.946 8.64885C19.2736 10.0977 16.9688 10.5741 14.859 9.90717C13.954 11.4667 13.0988 13.0261 12.2428 14.6354C12.5961 14.8362 12.9478 15.0378 13.2497 15.2393L13.1493 15.3397C14.0575 15.9443 14.9602 16.6486 15.5135 17.1022C16.2603 17.6551 17.1303 19.5906 17.811 21.105C18.0012 21.5282 18.1767 21.9186 18.3305 22.2367C18.6055 22.7107 18.5224 23.3111 18.129 23.6927C17.8024 23.9553 17.3748 24.0569 16.965 23.9692C16.5552 23.8815 16.2067 23.6138 16.0162 23.2406C15.904 22.997 15.7761 22.7103 15.6385 22.4015C15.0355 21.0486 14.2442 19.2735 13.7532 18.8648C12.4825 17.8526 11.0768 17.0226 9.57671 16.3988C9.55333 16.3988 9.51658 16.3867 9.47925 16.3744C9.44074 16.3618 9.40162 16.3489 9.37594 16.3489C7.27665 18.9659 3.58698 19.6695 0.67195 18.0088C0.238549 17.7444 -0.0180806 17.2663 0.000993877 16.759C0.0200683 16.2516 0.311867 15.7942 0.763901 15.5631C1.21593 15.3319 1.7576 15.3631 2.18009 15.6447C4.49517 16.9528 6.85854 15.2424 7.96589 13.079C9.02266 10.9632 9.82807 9.45733 10.6833 7.89785C8.97208 7.34379 7.4126 7.84574 6.15581 9.6083C5.19943 11.016 2.8353 9.65811 3.84073 8.24959C4.24112 7.68626 4.69624 7.16389 5.19943 6.69011C6.03293 5.97453 7.03885 5.48901 8.11762 5.28159V5.23102C8.1366 5.21204 8.15568 5.20029 8.17204 5.19022Z" fill="white"/>
</svg>
