<svg width="112" height="29" viewBox="0 0 112 29" fill="none" xmlns="http://www.w3.org/2000/svg">
<path d="M9.684 28.432C11.964 28.432 13.8 27.868 15.192 26.74C16.584 25.612 17.28 24.136 17.28 22.312C17.28 20.896 16.848 19.708 15.984 18.748C15.12 17.764 13.872 17.032 12.24 16.552L9.108 15.616C7.692 15.208 6.984 14.62 6.984 13.852C6.984 13.348 7.176 12.952 7.56 12.664C7.968 12.376 8.52 12.232 9.216 12.232C10.176 12.232 11.028 12.484 11.772 12.988C12.54 13.468 13.068 14.116 13.356 14.932L17.352 13.06C16.752 11.428 15.72 10.168 14.256 9.28C12.816 8.368 11.136 7.912 9.216 7.912C7.752 7.912 6.456 8.176 5.328 8.704C4.2 9.208 3.324 9.916 2.7 10.828C2.076 11.74 1.764 12.808 1.764 14.032C1.764 15.424 2.196 16.636 3.06 17.668C3.924 18.676 5.16 19.408 6.768 19.864L10.116 20.8C11.412 21.16 12.06 21.736 12.06 22.528C12.06 23.704 11.268 24.292 9.684 24.292C8.628 24.292 7.668 23.992 6.804 23.392C5.94 22.792 5.256 21.964 4.752 20.908L0.792 22.78C1.368 24.508 2.448 25.888 4.032 26.92C5.64 27.928 7.524 28.432 9.684 28.432ZM20.5073 28H25.9073V21.988L28.0673 19.612L33.0713 28H39.1913L32.0993 16.264L39.2273 8.344H32.5673L25.9073 15.436V0.747999H20.5073V28ZM41.6011 6.58H47.0011V1.18H41.6011V6.58ZM41.6011 28H47.0011V8.344H41.6011V28ZM50.9527 28H56.3527V0.747999H50.9527V28ZM60.3042 28H65.7042V0.747999H60.3042V28ZM79.1238 28.432C81.1398 28.432 82.9038 28 84.4158 27.136C85.9278 26.248 86.9838 25.084 87.5838 23.644L83.2638 21.592C82.8798 22.264 82.3398 22.792 81.6438 23.176C80.9718 23.56 80.1558 23.752 79.1958 23.752C77.8758 23.752 76.7958 23.38 75.9558 22.636C75.1158 21.892 74.6238 20.908 74.4798 19.684H88.2318C88.3278 19.42 88.3878 19.108 88.4118 18.748C88.4598 18.364 88.4838 17.98 88.4838 17.596C88.4838 15.772 88.0998 14.14 87.3318 12.7C86.5878 11.236 85.4958 10.072 84.0558 9.208C82.6158 8.344 80.8518 7.912 78.7638 7.912C76.8918 7.912 75.2118 8.356 73.7238 9.244C72.2358 10.132 71.0478 11.344 70.1598 12.88C69.2958 14.416 68.8638 16.168 68.8638 18.136C68.8638 20.032 69.2838 21.76 70.1238 23.32C70.9638 24.88 72.1518 26.128 73.6878 27.064C75.2238 27.976 77.0358 28.432 79.1238 28.432ZM78.7638 12.232C79.8678 12.232 80.7798 12.556 81.4998 13.204C82.2198 13.852 82.6398 14.692 82.7598 15.724H74.5878C74.8518 14.596 75.3438 13.732 76.0638 13.132C76.8078 12.532 77.7078 12.232 78.7638 12.232ZM100.916 28.432C102.116 28.432 103.232 28.24 104.264 27.856C105.32 27.448 106.196 26.872 106.892 26.128V28H111.932V0.747999H106.532V10C105.14 8.608 103.256 7.912 100.88 7.912C99.0076 7.912 97.3156 8.368 95.8036 9.28C94.2916 10.192 93.0916 11.428 92.2036 12.988C91.3156 14.524 90.8716 16.252 90.8716 18.172C90.8716 20.068 91.3036 21.796 92.1676 23.356C93.0556 24.916 94.2556 26.152 95.7676 27.064C97.2796 27.976 98.9956 28.432 100.916 28.432ZM101.564 23.572C100.076 23.572 98.8516 23.068 97.8916 22.06C96.9316 21.052 96.4516 19.756 96.4516 18.172C96.4516 16.612 96.9316 15.328 97.8916 14.32C98.8516 13.288 100.076 12.772 101.564 12.772C103.028 12.772 104.216 13.276 105.128 14.284C106.064 15.292 106.532 16.588 106.532 18.172C106.532 19.78 106.064 21.088 105.128 22.096C104.216 23.08 103.028 23.572 101.564 23.572Z" fill="white"/>
</svg>
