<svg width="112" height="29" viewBox="0 0 112 29" fill="none" xmlns="http://www.w3.org/2000/svg">
<path d="M9.684 28.432C7.524 28.432 5.64 27.928 4.032 26.92C2.448 25.888 1.368 24.508 0.792 22.78L4.752 20.908C5.256 21.964 5.94 22.792 6.804 23.392C7.668 23.992 8.628 24.292 9.684 24.292C10.452 24.292 11.04 24.136 11.448 23.824C11.856 23.512 12.06 23.08 12.06 22.528C12.06 22.24 11.988 22 11.844 21.808C11.7 21.592 11.484 21.4 11.196 21.232C10.908 21.064 10.548 20.92 10.116 20.8L6.768 19.864C5.16 19.408 3.924 18.676 3.06 17.668C2.196 16.636 1.764 15.424 1.764 14.032C1.764 12.808 2.076 11.74 2.7 10.828C3.324 9.916 4.2 9.208 5.328 8.704C6.456 8.176 7.752 7.912 9.216 7.912C11.136 7.912 12.816 8.368 14.256 9.28C15.72 10.168 16.752 11.428 17.352 13.06L13.356 14.932C13.068 14.116 12.54 13.468 11.772 12.988C11.028 12.484 10.176 12.232 9.216 12.232C8.52 12.232 7.968 12.376 7.56 12.664C7.176 12.952 6.984 13.348 6.984 13.852C6.984 14.116 7.056 14.356 7.2 14.572C7.344 14.788 7.572 14.98 7.884 15.148C8.22 15.316 8.628 15.472 9.108 15.616L12.24 16.552C13.872 17.032 15.12 17.764 15.984 18.748C16.848 19.708 17.28 20.896 17.28 22.312C17.28 23.536 16.956 24.604 16.308 25.516C15.684 26.428 14.808 27.148 13.68 27.676C12.552 28.18 11.22 28.432 9.684 28.432ZM20.5073 28V0.747999H25.9073V18.208L23.8913 17.56L32.5673 8.344H39.2273L32.0993 16.264L39.1913 28H33.0713L27.1313 18.028L30.2633 17.236L24.2513 23.788L25.9073 20.656V28H20.5073ZM41.6011 28V8.344H47.0011V28H41.6011ZM41.6011 6.58V1.18H47.0011V6.58H41.6011ZM50.9527 28V0.747999H56.3527V28H50.9527ZM60.3042 28V0.747999H65.7042V28H60.3042ZM79.1238 28.432C77.0358 28.432 75.2238 27.976 73.6878 27.064C72.1518 26.128 70.9638 24.88 70.1238 23.32C69.2838 21.76 68.8638 20.032 68.8638 18.136C68.8638 16.168 69.2958 14.416 70.1598 12.88C71.0478 11.344 72.2358 10.132 73.7238 9.244C75.2118 8.356 76.8918 7.912 78.7638 7.912C80.3238 7.912 81.7038 8.164 82.9038 8.668C84.1038 9.148 85.1118 9.832 85.9278 10.72C86.7678 11.608 87.4038 12.64 87.8358 13.816C88.2678 14.968 88.4838 16.228 88.4838 17.596C88.4838 17.98 88.4598 18.364 88.4118 18.748C88.3878 19.108 88.3278 19.42 88.2318 19.684H73.5078V15.724H85.1718L82.6158 17.596C82.8558 16.564 82.8438 15.652 82.5798 14.86C82.3158 14.044 81.8478 13.408 81.1758 12.952C80.5278 12.472 79.7238 12.232 78.7638 12.232C77.8278 12.232 77.0238 12.46 76.3518 12.916C75.6798 13.372 75.1758 14.044 74.8398 14.932C74.5038 15.82 74.3718 16.9 74.4438 18.172C74.3478 19.276 74.4798 20.248 74.8398 21.088C75.1998 21.928 75.7518 22.588 76.4958 23.068C77.2398 23.524 78.1398 23.752 79.1958 23.752C80.1558 23.752 80.9718 23.56 81.6438 23.176C82.3398 22.792 82.8798 22.264 83.2638 21.592L87.5838 23.644C87.1998 24.604 86.5878 25.444 85.7478 26.164C84.9318 26.884 83.9598 27.448 82.8318 27.856C81.7038 28.24 80.4678 28.432 79.1238 28.432ZM100.916 28.432C98.9956 28.432 97.2796 27.976 95.7676 27.064C94.2556 26.152 93.0556 24.916 92.1676 23.356C91.3036 21.796 90.8716 20.068 90.8716 18.172C90.8716 16.252 91.3156 14.524 92.2036 12.988C93.0916 11.428 94.2916 10.192 95.8036 9.28C97.3156 8.368 99.0076 7.912 100.88 7.912C102.32 7.912 103.592 8.188 104.696 8.74C105.824 9.268 106.712 10.024 107.36 11.008L106.532 12.088V0.747999H111.932V28H106.892V24.4L107.396 25.516C106.724 26.476 105.812 27.208 104.66 27.712C103.508 28.192 102.26 28.432 100.916 28.432ZM101.564 23.572C102.548 23.572 103.412 23.344 104.156 22.888C104.9 22.432 105.476 21.796 105.884 20.98C106.316 20.164 106.532 19.228 106.532 18.172C106.532 17.116 106.316 16.18 105.884 15.364C105.476 14.548 104.9 13.912 104.156 13.456C103.412 13 102.548 12.772 101.564 12.772C100.58 12.772 99.6916 13.012 98.8996 13.492C98.1316 13.948 97.5316 14.584 97.0996 15.4C96.6676 16.192 96.4516 17.116 96.4516 18.172C96.4516 19.228 96.6676 20.164 97.0996 20.98C97.5316 21.796 98.1316 22.432 98.8996 22.888C99.6916 23.344 100.58 23.572 101.564 23.572Z" fill="#13183F"/>
</svg>
